<?xml version="1.0" encoding="utf-8"?>
<!-- Generator: Adobe Illustrator 24.1.2, SVG Export Plug-In . SVG Version: 6.00 Build 0)  -->
<svg version="1.1" id="Слой_1" xmlns="http://www.w3.org/2000/svg" xmlns:xlink="http://www.w3.org/1999/xlink" x="0px" y="0px"
	 viewBox="0 0 7002 3753" style="enable-background:new 0 0 7002 3753;" xml:space="preserve">
<style type="text/css">
	.st0{clip-path:url(#SVGID_2_);}
</style>
<g>
	<defs>
		<rect id="SVGID_1_" width="7002" height="3753"/>
	</defs>
	<clipPath id="SVGID_2_">
		<use xlink:href="#SVGID_1_"  style="overflow:visible;"/>
	</clipPath>
	<g class="st0">
		<defs>
			<rect id="SVGID_3_" y="-0.5" width="7002" height="3754"/>
		</defs>
		<clipPath id="SVGID_4_">
			<use xlink:href="#SVGID_3_"  style="overflow:visible;"/>
		</clipPath>
		<g transform="matrix(1 0 0 1 0 0)" style="clip-path:url(#SVGID_4_);">
			
				<image style="overflow:visible;" width="4096" height="2196" xlink:href="471CA146.png"  transform="matrix(1.7095 0 0 1.7095 0 -0.501)">
			</image>
		</g>
	</g>
</g>
<path d="M6542.3,3305.8c-3.9,0-7.8-0.6-11.6-1.7c-3.7-1.2-6.9-2.8-9.4-4.8l4.5-8.1c2,1.7,4.5,3,7.4,4c2.9,1,5.9,1.5,9,1.5
	c3.7,0,6.6-0.7,8.7-2.2c2.1-1.5,3.1-3.6,3.1-6.2c0-2.6-1-4.6-2.9-6.1c-1.9-1.5-5-2.2-9.3-2.2h-5.1v-7.1l16-19l1.4,3.9H6524v-8.7
	h38.2v7l-16,19l-5.4-3.2h3.1c6.9,0,12,1.5,15.4,4.6c3.5,3,5.2,7,5.2,11.8c0,3.1-0.8,6.1-2.4,8.7c-1.6,2.7-4.1,4.8-7.4,6.5
	C6551.5,3305,6547.3,3305.8,6542.3,3305.8z M6477.4,3305v-7l22.2-21.1c1.9-1.8,3.3-3.3,4.2-4.6s1.5-2.6,1.8-3.7
	c0.3-1.2,0.5-2.3,0.5-3.3c0-2.6-0.9-4.5-2.6-5.9c-1.8-1.4-4.3-2.2-7.8-2.2c-2.7,0-5.2,0.5-7.4,1.4c-2.2,1-4.1,2.4-5.7,4.4l-7.3-5.6
	c2.2-2.9,5.1-5.2,8.8-6.8c3.7-1.7,7.9-2.5,12.5-2.5c4.1,0,7.6,0.7,10.6,2c3,1.3,5.4,3.1,7,5.5c1.7,2.4,2.5,5.3,2.5,8.6
	c0,1.8-0.2,3.6-0.7,5.4c-0.5,1.8-1.4,3.6-2.7,5.6c-1.3,2-3.3,4.2-5.8,6.6l-19.1,18.2l-2.2-3.9h32.7v8.8H6477.4z M6447.8,3296.8
	c2.6,0,4.9-0.7,6.8-2.1c1.9-1.4,3.4-3.6,4.5-6.6c1.1-2.9,1.7-6.6,1.7-11.1c0-4.5-0.6-8.2-1.7-11.1c-1.1-2.9-2.6-5.1-4.5-6.5
	c-1.9-1.4-4.2-2.2-6.8-2.2c-2.5,0-4.7,0.7-6.7,2.2c-1.9,1.4-3.4,3.5-4.6,6.5c-1.1,2.9-1.6,6.6-1.6,11.1c0,4.5,0.5,8.2,1.6,11.1
	c1.1,2.9,2.6,5.1,4.6,6.6C6443,3296.1,6445.3,3296.8,6447.8,3296.8z M6447.8,3305.8c-4.4,0-8.4-1.1-12-3.4c-3.5-2.2-6.3-5.5-8.3-9.8
	c-2-4.3-3-9.5-3-15.7s1-11.3,3-15.6c2-4.3,4.8-7.6,8.3-9.8c3.6-2.2,7.6-3.4,12-3.4c4.5,0,8.5,1.1,12,3.4s6.3,5.5,8.3,9.8
	c2.1,4.3,3.1,9.5,3.1,15.6s-1,11.4-3.1,15.7c-2,4.3-4.8,7.5-8.3,9.8S6452.3,3305.8,6447.8,3305.8z M6377.1,3305v-7l22.2-21.1
	c1.9-1.8,3.3-3.3,4.2-4.6s1.5-2.6,1.8-3.7c0.3-1.2,0.5-2.3,0.5-3.3c0-2.6-0.9-4.5-2.6-5.9c-1.8-1.4-4.3-2.2-7.8-2.2
	c-2.7,0-5.2,0.5-7.4,1.4c-2.2,1-4.1,2.4-5.7,4.4l-7.3-5.6c2.2-2.9,5.1-5.2,8.8-6.8c3.7-1.7,7.9-2.5,12.5-2.5c4.1,0,7.6,0.7,10.6,2
	c3,1.3,5.4,3.1,7,5.5c1.7,2.4,2.5,5.3,2.5,8.6c0,1.8-0.2,3.6-0.7,5.4c-0.5,1.8-1.4,3.6-2.7,5.6c-1.3,2-3.3,4.2-5.8,6.6l-19.1,18.2
	l-2.2-3.9h32.7v8.8H6377.1z M6363.8,3305.6c-1.8,0-3.4-0.6-4.6-1.8c-1.3-1.3-1.9-2.9-1.9-4.8c0-2,0.6-3.6,1.9-4.8
	c1.3-1.2,2.8-1.8,4.6-1.8s3.4,0.6,4.6,1.8c1.3,1.2,1.9,2.8,1.9,4.8c0,1.9-0.6,3.5-1.9,4.8
	C6367.1,3304.9,6365.6,3305.6,6363.8,3305.6z M6336,3305v-52l4.6,4.7h-16.4v-8.7h22.2v56H6336z M6296.7,3296.8
	c2.6,0,4.9-0.7,6.8-2.1c1.9-1.4,3.4-3.6,4.5-6.6c1.1-2.9,1.7-6.6,1.7-11.1c0-4.5-0.6-8.2-1.7-11.1c-1.1-2.9-2.6-5.1-4.5-6.5
	c-1.9-1.4-4.2-2.2-6.8-2.2c-2.5,0-4.7,0.7-6.7,2.2c-1.9,1.4-3.4,3.5-4.6,6.5c-1.1,2.9-1.6,6.6-1.6,11.1c0,4.5,0.5,8.2,1.6,11.1
	c1.1,2.9,2.6,5.1,4.6,6.6C6291.9,3296.1,6294.2,3296.8,6296.7,3296.8z M6296.7,3305.8c-4.4,0-8.4-1.1-12-3.4
	c-3.5-2.2-6.3-5.5-8.3-9.8c-2-4.3-3-9.5-3-15.7s1-11.3,3-15.6c2-4.3,4.8-7.6,8.3-9.8c3.6-2.2,7.6-3.4,12-3.4c4.5,0,8.5,1.1,12,3.4
	s6.3,5.5,8.3,9.8c2.1,4.3,3.1,9.5,3.1,15.6s-1,11.4-3.1,15.7c-2,4.3-4.8,7.5-8.3,9.8S6301.2,3305.8,6296.7,3305.8z M6261,3305.6
	c-1.8,0-3.4-0.6-4.6-1.8c-1.3-1.3-1.9-2.9-1.9-4.8c0-2,0.6-3.6,1.9-4.8c1.3-1.2,2.8-1.8,4.6-1.8s3.4,0.6,4.6,1.8
	c1.3,1.2,1.9,2.8,1.9,4.8c0,1.9-0.6,3.5-1.9,4.8C6264.3,3304.9,6262.8,3305.6,6261,3305.6z M6225.2,3296.8c2.6,0,4.9-0.7,6.8-2.1
	c1.9-1.4,3.4-3.6,4.5-6.6c1.1-2.9,1.7-6.6,1.7-11.1c0-4.5-0.6-8.2-1.7-11.1c-1.1-2.9-2.6-5.1-4.5-6.5c-1.9-1.4-4.2-2.2-6.8-2.2
	c-2.5,0-4.7,0.7-6.7,2.2c-1.9,1.4-3.4,3.5-4.6,6.5c-1.1,2.9-1.6,6.6-1.6,11.1c0,4.5,0.5,8.2,1.6,11.1c1.1,2.9,2.6,5.1,4.6,6.6
	C6220.5,3296.1,6222.7,3296.8,6225.2,3296.8z M6225.2,3305.8c-4.4,0-8.4-1.1-12-3.4c-3.5-2.2-6.3-5.5-8.3-9.8c-2-4.3-3-9.5-3-15.7
	s1-11.3,3-15.6c2-4.3,4.8-7.6,8.3-9.8c3.6-2.2,7.6-3.4,12-3.4c4.5,0,8.5,1.1,12,3.4s6.3,5.5,8.3,9.8c2.1,4.3,3.1,9.5,3.1,15.6
	s-1,11.4-3.1,15.7c-2,4.3-4.8,7.5-8.3,9.8S6229.7,3305.8,6225.2,3305.8z M6172.9,3305.8c-3.9,0-7.8-0.6-11.6-1.7
	c-3.7-1.2-6.9-2.8-9.4-4.8l4.5-8.1c2,1.7,4.5,3,7.4,4c2.9,1,5.9,1.5,9,1.5c3.7,0,6.6-0.7,8.7-2.2c2.1-1.5,3.1-3.6,3.1-6.2
	c0-2.6-1-4.6-2.9-6.1c-1.9-1.5-5-2.2-9.3-2.2h-5.1v-7.1l16-19l1.4,3.9h-30.1v-8.7h38.2v7l-16,19l-5.4-3.2h3.1c6.9,0,12,1.5,15.4,4.6
	c3.5,3,5.2,7,5.2,11.8c0,3.1-0.8,6.1-2.4,8.7c-1.6,2.7-4.1,4.8-7.4,6.5C6182,3305,6177.9,3305.8,6172.9,3305.8z"/>
<path d="M2979.7,1949l12.8-36.5h85.5l12.8,36.5H2979.7z M2937.4,1983l77.3-175h48.8l77.5,175h-51.5l-60.5-150.8h19.5l-60.5,150.8
	H2937.4z M2804.1,1983v-175h49.5v135.8h83.5v39.3H2804.1z M2651.5,1983v-175h49.5v135.8h83.5v39.3H2651.5z M2476.3,1949l12.8-36.5
	h85.5l12.8,36.5H2476.3z M2434,1983l77.3-175h48.8l77.5,175H2586l-60.5-150.8h19.5l-60.5,150.8H2434z M2207,1949l12.8-36.5h85.5
	l12.8,36.5H2207z M2164.7,1983l77.3-175h48.8l77.5,175h-51.5l-60.5-150.8h19.5l-60.5,150.8H2164.7z M2057.8,1983l-74.8-175h53.5
	l63,151.5h-31.5l64.5-151.5h49l-75,175H2057.8z M1887.5,1944.8h91.5v38.3h-140.5v-175h137.3v38.3h-88.3V1944.8z M1884,1875.8h81.3
	v37H1884V1875.8z M1738.2,1986.5c-14.3,0-28.2-1.8-41.5-5.3c-13.2-3.7-23.9-8.3-32.3-14l16.3-36.5c7.8,5,16.8,9.2,27,12.5
	c10.3,3.2,20.6,4.8,30.8,4.8c6.8,0,12.3-0.6,16.5-1.8c4.2-1.3,7.2-3,9-5c2-2.2,3-4.7,3-7.5c0-4-1.8-7.2-5.5-9.5
	c-3.7-2.3-8.4-4.3-14.3-5.8s-12.3-3-19.5-4.5c-7-1.5-14.1-3.4-21.3-5.8c-7-2.3-13.4-5.3-19.3-9c-5.8-3.8-10.6-8.8-14.3-14.8
	c-3.7-6.2-5.5-13.9-5.5-23.3c0-10.5,2.8-20,8.5-28.5c5.8-8.5,14.5-15.3,26-20.5c11.5-5.2,25.8-7.8,43-7.8c11.5,0,22.8,1.3,33.8,4
	c11.2,2.5,21.1,6.3,29.8,11.3l-15.3,36.8c-8.3-4.5-16.6-7.8-24.8-10c-8.2-2.3-16.1-3.5-23.8-3.5c-6.8,0-12.3,0.8-16.5,2.3
	c-4.2,1.3-7.2,3.2-9,5.5c-1.8,2.3-2.8,5-2.8,8c0,3.8,1.8,6.9,5.3,9.3c3.7,2.2,8.4,4,14.3,5.5c6,1.3,12.5,2.8,19.5,4.3
	c7.2,1.5,14.3,3.4,21.3,5.8c7.2,2.2,13.7,5.2,19.5,9c5.8,3.7,10.5,8.6,14,14.8c3.7,6,5.5,13.6,5.5,22.8c0,10.2-2.9,19.6-8.8,28.3
	c-5.7,8.5-14.3,15.3-25.8,20.5C1769.8,1983.9,1755.5,1986.5,1738.2,1986.5z M1555.7,1983v-135.8H1502V1808h156.8v39.3h-53.5V1983
	H1555.7z M1385.4,1921l-22-22.8h49.5c10.3,0,18-2.3,23-6.8c5.2-4.5,7.8-10.8,7.8-18.8c0-8.2-2.6-14.5-7.8-19c-5-4.5-12.7-6.8-23-6.8
	h-49.5l22-22.8V1921z M1444.1,1983l-43.5-63.8h52.8l43.8,63.8H1444.1z M1335.9,1983v-175h80c16,0,29.8,2.6,41.3,7.8
	c11.7,5.2,20.7,12.7,27,22.5c6.3,9.7,9.5,21.2,9.5,34.5c0,13.2-3.2,24.6-9.5,34.3c-6.3,9.5-15.3,16.8-27,22
	c-11.5,5-25.3,7.5-41.3,7.5h-52.5l22-20.8v67.3H1335.9z M1251.1,1983v-175h49.5v175H1251.1z M1170.2,1914.8h-74.5v-41h74.5V1914.8z
	 M1099.2,1983h-49.5v-175h49.5V1983z M1166.7,1808h49.5v175h-49.5V1808z M949.4,1986.5c-14.3,0-28.2-1.8-41.5-5.3
	c-13.2-3.7-23.9-8.3-32.3-14l16.3-36.5c7.8,5,16.8,9.2,27,12.5c10.3,3.2,20.6,4.8,30.8,4.8c6.8,0,12.3-0.6,16.5-1.8
	c4.2-1.3,7.2-3,9-5c2-2.2,3-4.7,3-7.5c0-4-1.8-7.2-5.5-9.5c-3.7-2.3-8.4-4.3-14.3-5.8c-5.8-1.5-12.3-3-19.5-4.5
	c-7-1.5-14.1-3.4-21.3-5.8c-7-2.3-13.4-5.3-19.3-9c-5.8-3.8-10.6-8.8-14.3-14.8c-3.7-6.2-5.5-13.9-5.5-23.3c0-10.5,2.8-20,8.5-28.5
	c5.8-8.5,14.5-15.3,26-20.5c11.5-5.2,25.8-7.8,43-7.8c11.5,0,22.8,1.3,33.8,4c11.2,2.5,21.1,6.3,29.8,11.3l-15.3,36.8
	c-8.3-4.5-16.6-7.8-24.8-10c-8.2-2.3-16.1-3.5-23.8-3.5c-6.8,0-12.3,0.8-16.5,2.3c-4.2,1.3-7.2,3.2-9,5.5c-1.8,2.3-2.8,5-2.8,8
	c0,3.8,1.8,6.9,5.3,9.3c3.7,2.2,8.4,4,14.3,5.5c6,1.3,12.5,2.8,19.5,4.3c7.2,1.5,14.3,3.4,21.3,5.8c7.2,2.2,13.7,5.2,19.5,9
	c5.8,3.7,10.5,8.6,14,14.8c3.7,6,5.5,13.6,5.5,22.8c0,10.2-2.9,19.6-8.8,28.3c-5.7,8.5-14.3,15.3-25.8,20.5
	C981,1983.9,966.7,1986.5,949.4,1986.5z M712.6,1949l12.8-36.5h85.5l12.8,36.5H712.6z M670.3,1983l77.3-175h48.8l77.5,175h-51.5
	l-60.5-150.8h19.5L720.8,1983H670.3z M629.1,1983l-57-72.3l32.3-34.5l82.3,106.8H629.1z M511.6,1983v-175h49v175H511.6z
	 M555.9,1944.3l-2.8-55.5l75.3-80.8h54.5l-75,81.3l-27.5,28.8L555.9,1944.3z"/>
</svg>
