<svg xmlns="http://www.w3.org/2000/svg" viewBox="0 0 574.01 313.97"><defs><style>.cls-1,.cls-2{fill:#191d25;}.cls-1,.cls-4{fill-rule:evenodd;}.cls-3{fill:#1a1a18;stroke:#1a1a18;stroke-miterlimit:22.93;stroke-width:0.57px;}.cls-4{fill:#fff;}</style></defs><g id="Слой_2" data-name="Слой 2"><g id="Слой_1-2" data-name="Слой 1"><polygon class="cls-1" points="146.1 0 11.25 0 11.25 134.86 70.62 134.86 70.62 66.42 86.72 66.42 86.72 134.86 146.1 134.86 146.1 0"/><path class="cls-1" d="M212.24,25.65c0,7.64,4.67,12.74,11.72,12.74s11.72-5.1,11.72-12.74S231,12.92,224,12.92,212.24,18,212.24,25.65Zm-.85-21.23.51,5.19a17.72,17.72,0,0,1,13.59-6c11.81,0,20.81,9.35,20.81,22.08s-9,22.09-20.81,22.09A17.88,17.88,0,0,1,212.24,42V65.57H202.05V4.42Z"/><path class="cls-1" d="M263.31,20.22h22.08c-1.19-5.35-4.84-8.15-10.7-8.15-6.28,0-10.19,2.8-11.38,8.15ZM274.6,3.57c12.32,0,20.81,8.15,20.81,20.13a29.56,29.56,0,0,1-.42,4.59H263c.85,7.21,5.44,10.52,11.81,10.52,5.68,0,9.85-2.54,11-6.36l9.43,1.7c-1.87,8.57-10.37,13.59-20.38,13.59-13.85,0-22.17-9.26-22.17-21.92C252.61,13,261.69,3.57,274.6,3.57Z"/><path class="cls-1" d="M305.29,4.42h9.59l.59,5.27A13.66,13.66,0,0,1,327.2,3.74a14.17,14.17,0,0,1,4.15.6l-1.18,9.93a16.88,16.88,0,0,0-4.42-.59c-5.69,0-10.28,4-10.28,11V46.88H305.29Z"/><path class="cls-1" d="M338.59,4.42h9.34l.51,4.33a13.38,13.38,0,0,1,10.7-5.18c5.09,0,9.51,2.13,12.15,6.37a15.36,15.36,0,0,1,12.65-6.37c8.32,0,14.95,5.61,14.95,16.39V46.88H388.7V20.73c0-5.1-2.81-7.74-7-7.74-3.82,0-7.9,1.88-7.9,7.74V46.88H363.64V20.73c0-5.1-2.8-7.74-7-7.74-3.83,0-7.9,1.88-7.9,7.74V46.88H338.59Z"/><path class="cls-1" d="M212.24,113.62c0,7.64,4.67,12.74,11.72,12.74s11.72-5.1,11.72-12.74S231,100.89,224,100.89s-11.72,5.09-11.72,12.73Zm-.85-21.23.51,5.19a17.72,17.72,0,0,1,13.59-6c11.81,0,20.81,9.35,20.81,22.08s-9,22.09-20.81,22.09A17.91,17.91,0,0,1,212.24,130v23.52H202.05V92.39Z"/><path class="cls-1" d="M263.22,113.62c0,7.64,4.76,12.74,11.89,12.74s11.9-5.1,11.9-12.74-4.76-12.73-11.9-12.73-11.89,5.09-11.89,12.73Zm34.4,0c0,12.74-9.51,22.09-22.51,22.09s-22.5-9.35-22.5-22.09,9.51-22.08,22.5-22.08S297.62,100.89,297.62,113.62Z"/><rect class="cls-2" x="307.15" y="71.16" width="10.19" height="63.69"/><polygon class="cls-1" points="335.44 92.39 347.58 121.69 358.37 92.39 368.98 92.39 345.55 153.54 335.1 153.54 342.24 134.85 324.14 92.39 335.44 92.39"/><path class="cls-1" d="M385.4,82.71H388v9.68h14.86v8.92H388v18.77c0,4.5,2.13,6.2,6,6.2a16.34,16.34,0,0,0,5.95-1.44l2.29,8.41a23.74,23.74,0,0,1-10.44,2.46c-8.75,0-14-4.93-14-13.26V101.31h-8V98.5Z"/><path class="cls-1" d="M418,108.19H440.1c-1.18-5.35-4.83-8.15-10.69-8.15-6.29,0-10.19,2.8-11.38,8.15Zm11.29-16.65c12.31,0,20.81,8.15,20.81,20.13a28.42,28.42,0,0,1-.43,4.59h-32c.85,7.22,5.43,10.53,11.8,10.53,5.69,0,9.85-2.55,11-6.37l9.43,1.7c-1.88,8.57-10.37,13.59-20.39,13.59-13.84,0-22.16-9.26-22.16-21.92C407.33,101,416.41,91.54,429.32,91.54Z"/><path class="cls-1" d="M478.77,126.36c5.61,0,9.25-3.06,10.36-7.73l9.76,1.71c-1.44,8.74-9.59,15.37-20.21,15.37-12.65,0-21.9-9.35-21.9-22,0-12.82,9.34-22.17,22-22.17,10.36,0,17.92,6,19.87,15.12l-9.93,1.69c-1.11-4.66-4.76-7.46-9.77-7.46-6.79,0-11.55,4.92-11.55,12.82C467.39,121.44,472,126.36,478.77,126.36Z"/><path class="cls-1" d="M507.33,71.16h10.18v25.4a16.93,16.93,0,0,1,12.32-5c8.49,0,15.77,5.37,16.57,15.81v27.5H536.29v-24c0-6.54-3.83-9.85-8.92-9.85-4.59,0-9.86,2.38-9.86,9.85v24H507.33Z"/><rect class="cls-3" x="0.28" y="163.4" width="573.44" height="150.3"/><polygon class="cls-4" points="144.21 175.95 19.07 175.95 19.07 301.08 74.17 301.08 74.17 237.58 89.11 237.58 89.11 301.08 144.21 301.08 144.21 175.95"/><polygon class="cls-4" points="196.12 180.05 231.03 180.05 231.03 219.45 221.57 219.45 221.57 188.33 205.57 188.33 205.57 219.45 196.12 219.45 196.12 180.05"/><path class="cls-4" d="M249.8,194.71h20.49c-1.1-5-4.49-7.56-9.92-7.56-5.84,0-9.46,2.6-10.57,7.56Zm10.49-15.45c11.42,0,19.3,7.57,19.3,18.68a27.54,27.54,0,0,1-.39,4.26H249.49c.79,6.69,5,9.77,10.95,9.77,5.28,0,9.14-2.37,10.17-5.91l8.75,1.57c-1.74,8-9.62,12.61-18.92,12.61-12.84,0-20.56-8.59-20.56-20.33C239.88,188,248.31,179.26,260.29,179.26Z"/><path class="cls-4" d="M298.21,199.75c0,7.1,4.33,11.82,10.88,11.82S320,206.85,320,199.75s-4.33-11.82-10.87-11.82-10.88,4.73-10.88,11.82Zm-.79-19.7.47,4.81a16.46,16.46,0,0,1,12.61-5.6c11,0,19.31,8.67,19.31,20.49s-8.35,20.49-19.31,20.49A16.59,16.59,0,0,1,298.21,215v21.83h-9.45V180.05Z"/><polygon class="cls-4" points="338.66 180.05 348.35 180.05 360.89 197.15 373.26 180.05 382.95 180.05 382.95 219.45 373.88 219.45 373.88 192.82 361.83 209.45 359.78 209.45 347.72 192.98 347.72 219.45 338.66 219.45 338.66 180.05"/><path class="cls-4" d="M412.21,211.57c5.2,0,8.58-2.83,9.61-7.17l9.06,1.58c-1.34,8.11-8.9,14.26-18.75,14.26-11.74,0-20.33-8.67-20.33-20.41,0-11.9,8.67-20.57,20.41-20.57,9.61,0,16.62,5.6,18.44,14l-9.22,1.58c-1-4.34-4.41-6.94-9.07-6.94-6.3,0-10.71,4.58-10.71,11.9C401.65,207,405.9,211.57,412.21,211.57Z"/><polygon class="cls-4" points="448.16 180.05 448.16 194.55 452.42 194.55 463.93 180.05 475.2 180.05 459.91 198.57 475.98 219.45 464.56 219.45 452.34 203.69 448.16 203.69 448.16 219.45 438.71 219.45 438.71 180.05 448.16 180.05"/><polygon class="cls-4" points="482.3 180.05 491.44 180.05 491.44 205.98 508.38 180.05 517.53 180.05 517.53 219.45 508.38 219.45 508.38 193.53 491.44 219.45 482.3 219.45 482.3 180.05"/><path class="cls-4" d="M560.26,163.4c-.1,6.9-5.3,11.53-12.92,11.53s-12.82-4.63-12.92-11.53h8.35c0,3,1.75,4.44,4.49,4.44s4.55-1.48,4.65-4.44Zm-30.89,16.65h9.14V206l16.94-25.93h9.15v39.4h-9.15V193.53l-16.94,25.92h-9.14Z"/><polygon class="cls-4" points="196.12 261.68 231.03 261.68 231.03 301.08 221.57 301.08 221.57 269.96 205.57 269.96 205.57 301.08 196.12 301.08 196.12 261.68"/><path class="cls-4" d="M249.73,281.38c0,7.09,4.41,11.82,11,11.82s11-4.73,11-11.82-4.41-11.82-11-11.82-11,4.73-11,11.82Zm31.91,0c0,11.82-8.82,20.49-20.88,20.49s-20.88-8.67-20.88-20.49,8.82-20.49,20.88-20.49S281.64,269.56,281.64,281.38Z"/><path class="cls-4" d="M287.57,293.2c3.71,0,4.89-1.57,5.52-18l.55-13.56H324.3v39.4h-9.46V270H302.78l-.31,7.32c-.79,18.68-3.94,24.59-13.48,24.59a12.79,12.79,0,0,1-4-.63l1.11-8.19A8.8,8.8,0,0,0,287.57,293.2Z"/><polygon class="cls-4" points="336.14 261.68 345.28 261.68 345.28 287.61 362.22 261.68 371.36 261.68 371.36 301.08 362.22 301.08 362.22 275.16 345.28 301.08 336.14 301.08 336.14 261.68"/><polygon class="cls-4" points="391.48 269.96 378.88 269.96 378.88 261.68 413.55 261.68 413.55 269.96 400.94 269.96 400.94 301.08 391.48 301.08 391.48 269.96"/><path class="cls-4" d="M428,276.34h20.48c-1.09-5-4.49-7.57-9.92-7.57-5.83,0-9.45,2.61-10.56,7.57Zm10.48-15.45c11.43,0,19.3,7.57,19.3,18.68a26.14,26.14,0,0,1-.39,4.25h-29.7c.78,6.7,5,9.78,10.95,9.78,5.28,0,9.14-2.37,10.16-5.92l8.75,1.58c-1.74,8-9.62,12.61-18.91,12.61-12.85,0-20.57-8.59-20.57-20.33C418.05,269.64,426.48,260.89,438.46,260.89Z"/><polygon class="cls-4" points="480.4 273.74 488.29 261.68 498.77 261.68 485.61 281.15 499.63 301.08 488.52 301.08 479.3 288.08 471.11 301.08 460.94 301.08 474.02 280.59 460.63 261.68 471.89 261.68 480.4 273.74"/></g></g></svg>